<svg xmlns="http://www.w3.org/2000/svg" viewBox="0 0 128 128" role="img" aria-label="弓手角色图标">
  <defs>
    <linearGradient id="bg" x1="18" y1="18" x2="110" y2="112" gradientUnits="userSpaceOnUse">
      <stop stop-color="#b98a4c"/>
      <stop offset="1" stop-color="#74482d"/>
    </linearGradient>
  </defs>
  <path d="M64 8 114 36v56l-50 28-50-28V36Z" fill="url(#bg)" stroke="#241d18" stroke-width="6" stroke-linejoin="round"/>
  <path d="M41 97c3-18 12-30 23-30s20 12 23 30" fill="#c48b5a" stroke="#241d18" stroke-width="5" stroke-linecap="round"/>
  <circle cx="64" cy="50" r="20" fill="#e8bf8e" stroke="#241d18" stroke-width="5"/>
  <path d="M43 47c8-22 30-24 43-8-10-1-18-4-27-10-1 9-7 14-16 18Z" fill="#6b3f2d" stroke="#241d18" stroke-width="4" stroke-linejoin="round"/>
  <path d="M48 77h32l8 25H40Z" fill="#8b322d" stroke="#241d18" stroke-width="5" stroke-linejoin="round"/>
  <path d="M94 25c25 35 25 62 0 85" fill="none" stroke="#f3dfb1" stroke-width="6" stroke-linecap="round"/>
  <path d="M93 25c-9 29-9 57 0 85" fill="none" stroke="#241d18" stroke-width="3" stroke-linecap="round"/>
  <path d="M27 78h58" stroke="#f3dfb1" stroke-width="5" stroke-linecap="round"/>
  <path d="M86 78 75 70m11 8-11 8" stroke="#f3dfb1" stroke-width="5" stroke-linecap="round" stroke-linejoin="round"/>
  <path d="M52 54h.1M76 54h.1" stroke="#241d18" stroke-width="6" stroke-linecap="round"/>
</svg>
