<svg xmlns="http://www.w3.org/2000/svg" viewBox="0 0 128 128" role="img" aria-label="男占卜者角色图标">
  <defs>
    <linearGradient id="bg33" x1="18" y1="14" x2="110" y2="116" gradientUnits="userSpaceOnUse">
      <stop stop-color="#b98a4c"/>
      <stop offset="1" stop-color="#74482d"/>
    </linearGradient>
  </defs>
  <path d="M64 8 114 36v56l-50 28-50-28V36Z" fill="url(#bg33)" stroke="#1d2228" stroke-width="6" stroke-linejoin="round"/>
  <path d="M28 43h22" stroke="#f4d35e" stroke-width="5" stroke-linecap="round"/> 
  <path d="M38 101c4-20 15-34 26-34s22 14 26 34Z" fill="#587a4b" stroke="#1d2228" stroke-width="5" stroke-linejoin="round"/><path d="M47 79h34l8 24H39Z" fill="#587a4b" opacity=".85"/>
  <circle cx="64" cy="50" r="20" fill="#8f5f43" stroke="#1d2228" stroke-width="5"/>
  
  <path d="M42 46c9-22 35-24 46 0-14-7-31-7-46 0Z" fill="#2f2b24" stroke="#1d2228" stroke-width="4" stroke-linejoin="round"/>
  <path d="M51 55h.1M77 55h.1" stroke="#1d2228" stroke-width="6" stroke-linecap="round"/>
  <path d="M56 65c5 2 11 2 16 0" fill="none" stroke="#1d2228" stroke-width="4" stroke-linecap="round"/>
  <path d="M103 53c-15 4-24 18-19 34 4 12 16 18 28 15-7 9-25 11-36 0-15-15-10-41 9-50 7-3 13-3 18 1Z" fill="#f2e7c9" stroke="#222" stroke-width="5"/>
</svg>
