<svg xmlns="http://www.w3.org/2000/svg" viewBox="0 0 128 128" role="img" aria-label="男草药师角色图标">
  <defs>
    <linearGradient id="bg25" x1="18" y1="14" x2="110" y2="116" gradientUnits="userSpaceOnUse">
      <stop stop-color="#c66b57"/>
      <stop offset="1" stop-color="#6f2d2c"/>
    </linearGradient>
  </defs>
  <path d="M64 8 114 36v56l-50 28-50-28V36Z" fill="url(#bg25)" stroke="#1d2228" stroke-width="6" stroke-linejoin="round"/>
  <circle cx="35" cy="42" r="4" fill="#f2e7c9"/><circle cx="46" cy="38" r="3" fill="#f2e7c9"/>
  <path d="M38 101c4-20 15-34 26-34s22 14 26 34Z" fill="#5e2f2d" stroke="#1d2228" stroke-width="5" stroke-linejoin="round"/><path d="M47 79h34l8 24H39Z" fill="#5e2f2d" opacity=".85"/>
  <circle cx="64" cy="50" r="20" fill="#d9a77f" stroke="#1d2228" stroke-width="5"/>
  
  <path d="M42 46c9-22 35-24 46 0-14-7-31-7-46 0Z" fill="#d8b16a" stroke="#1d2228" stroke-width="4" stroke-linejoin="round"/>
  <path d="M51 54h.1M77 54h.1" stroke="#1d2228" stroke-width="6" stroke-linecap="round"/>
  <path d="M56 64c5 4 11 4 16 0" fill="none" stroke="#1d2228" stroke-width="4" stroke-linecap="round"/>
  <path d="M94 58v45" stroke="#2f6b53" stroke-width="5"/><path d="M94 70c-15-4-19-13-14-22 11 3 16 10 14 22Zm0 17c15-4 19-13 14-22-11 3-16 10-14 22Z" fill="#87d37c" stroke="#18302e" stroke-width="3"/>
</svg>
