<svg xmlns="http://www.w3.org/2000/svg" viewBox="0 0 128 128" role="img" aria-label="男水手角色图标">
  <defs>
    <linearGradient id="bg26" x1="18" y1="14" x2="110" y2="116" gradientUnits="userSpaceOnUse">
      <stop stop-color="#a4b36a"/>
      <stop offset="1" stop-color="#566f39"/>
    </linearGradient>
  </defs>
  <path d="M64 8 114 36v56l-50 28-50-28V36Z" fill="url(#bg26)" stroke="#1d2228" stroke-width="6" stroke-linejoin="round"/>
  <circle cx="36" cy="39" r="6" fill="#f4d35e" stroke="#1d2228" stroke-width="3"/>
  <path d="M38 101c4-20 15-34 26-34s22 14 26 34Z" fill="#7f4f6f" stroke="#1d2228" stroke-width="5" stroke-linejoin="round"/><path d="M47 79h34l8 24H39Z" fill="#7f4f6f" opacity=".85"/>
  <circle cx="64" cy="50" r="20" fill="#f1c99a" stroke="#1d2228" stroke-width="5"/>
  
  <path d="M42 46c9-22 35-24 46 0-14-7-31-7-46 0Z" fill="#5d4734" stroke="#1d2228" stroke-width="4" stroke-linejoin="round"/>
  <path d="M51 54h.1M77 54h.1" stroke="#1d2228" stroke-width="6" stroke-linecap="round"/>
  <path d="M57 65h14" fill="none" stroke="#1d2228" stroke-width="4" stroke-linecap="round"/>
  <path d="M96 43v55m-11-45h22" stroke="#d9dde1" stroke-width="6" stroke-linecap="round"/><path d="M79 82c2 18 32 18 34 0m-34 0 8 7m26-7-8 7" fill="none" stroke="#d9dde1" stroke-width="6" stroke-linecap="round"/>
</svg>
