<svg xmlns="http://www.w3.org/2000/svg" viewBox="0 0 128 128" role="img" aria-label="女草药师角色图标">
  <defs>
    <linearGradient id="bg75" x1="18" y1="14" x2="110" y2="116" gradientUnits="userSpaceOnUse">
      <stop stop-color="#a4b36a"/>
      <stop offset="1" stop-color="#566f39"/>
    </linearGradient>
  </defs>
  <path d="M64 8 114 36v56l-50 28-50-28V36Z" fill="url(#bg75)" stroke="#1d2228" stroke-width="6" stroke-linejoin="round"/>
  <circle cx="36" cy="39" r="6" fill="#f4d35e" stroke="#1d2228" stroke-width="3"/>
  <path d="M41 101c4-21 14-34 23-34s19 13 23 34Z" fill="#526b82" stroke="#1d2228" stroke-width="5" stroke-linejoin="round"/><path d="M54 80h20l9 23H45Z" fill="#526b82" opacity=".85"/>
  <circle cx="64" cy="50" r="20" fill="#d9a77f" stroke="#1d2228" stroke-width="5"/>
  <path d="M38 63c-8 8-10 18-6 28M90 63c8 8 10 18 6 28" fill="none" stroke="#20252a" stroke-width="5" stroke-linecap="round"/>
  <path d="M41 48c8-25 39-27 47 0 0 20-9 30-24 30S41 68 41 48Z" fill="#20252a" stroke="#1d2228" stroke-width="4"/><path d="M44 47c12-16 31-18 42-1-14-2-29-6-42 1Z" fill="#20252a"/>
  <path d="M51 54h.1M77 54h.1" stroke="#1d2228" stroke-width="6" stroke-linecap="round"/>
  <path d="M57 65h14" fill="none" stroke="#1d2228" stroke-width="4" stroke-linecap="round"/>
  <path d="M94 58v45" stroke="#2f6b53" stroke-width="5"/><path d="M94 70c-15-4-19-13-14-22 11 3 16 10 14 22Zm0 17c15-4 19-13 14-22-11 3-16 10-14 22Z" fill="#87d37c" stroke="#18302e" stroke-width="3"/>
</svg>
