<svg xmlns="http://www.w3.org/2000/svg" viewBox="0 0 128 128" role="img" aria-label="男哨兵角色图标">
  <defs>
    <linearGradient id="bg46" x1="18" y1="14" x2="110" y2="116" gradientUnits="userSpaceOnUse">
      <stop stop-color="#c66b57"/>
      <stop offset="1" stop-color="#6f2d2c"/>
    </linearGradient>
  </defs>
  <path d="M64 8 114 36v56l-50 28-50-28V36Z" fill="url(#bg46)" stroke="#1d2228" stroke-width="6" stroke-linejoin="round"/>
  <circle cx="35" cy="42" r="4" fill="#f2e7c9"/><circle cx="46" cy="38" r="3" fill="#f2e7c9"/>
  <path d="M38 101c4-20 15-34 26-34s22 14 26 34Z" fill="#7f4f6f" stroke="#1d2228" stroke-width="5" stroke-linejoin="round"/><path d="M47 79h34l8 24H39Z" fill="#7f4f6f" opacity=".85"/>
  <circle cx="64" cy="50" r="20" fill="#f1c99a" stroke="#1d2228" stroke-width="5"/>
  
  <path d="M42 46c9-22 35-24 46 0-14-7-31-7-46 0Z" fill="#5d4734" stroke="#1d2228" stroke-width="4" stroke-linejoin="round"/>
  <path d="M51 54h.1M77 54h.1" stroke="#1d2228" stroke-width="6" stroke-linecap="round"/>
  <path d="M56 64c5 4 11 4 16 0" fill="none" stroke="#1d2228" stroke-width="4" stroke-linecap="round"/>
  <path d="M72 78c15-18 33-18 48 0-15 18-33 18-48 0Z" fill="#f2e7c9" stroke="#222" stroke-width="5"/><circle cx="96" cy="78" r="9" fill="#365d73" stroke="#222" stroke-width="4"/>
</svg>
