<svg xmlns="http://www.w3.org/2000/svg" viewBox="0 0 128 128" role="img" aria-label="男朝圣者角色图标">
  <defs>
    <linearGradient id="bg47" x1="18" y1="14" x2="110" y2="116" gradientUnits="userSpaceOnUse">
      <stop stop-color="#7d9dbb"/>
      <stop offset="1" stop-color="#354f6d"/>
    </linearGradient>
  </defs>
  <path d="M64 8 114 36v56l-50 28-50-28V36Z" fill="url(#bg47)" stroke="#1d2228" stroke-width="6" stroke-linejoin="round"/>
  <circle cx="35" cy="42" r="4" fill="#f2e7c9"/><circle cx="46" cy="38" r="3" fill="#f2e7c9"/>
  <path d="M38 101c4-20 15-34 26-34s22 14 26 34Z" fill="#6c4b92" stroke="#1d2228" stroke-width="5" stroke-linejoin="round"/><path d="M47 79h34l8 24H39Z" fill="#6c4b92" opacity=".85"/>
  <circle cx="64" cy="50" r="20" fill="#c89166" stroke="#1d2228" stroke-width="5"/>
  
  <path d="M42 46c9-22 35-24 46 0-14-7-31-7-46 0Z" fill="#20252a" stroke="#1d2228" stroke-width="4" stroke-linejoin="round"/>
  <path d="M51 54h.1M77 54h.1" stroke="#1d2228" stroke-width="6" stroke-linecap="round"/>
  <path d="M57 65h14" fill="none" stroke="#1d2228" stroke-width="4" stroke-linecap="round"/>
  <path d="M97 27v86" stroke="#d6b077" stroke-width="6" stroke-linecap="round"/><circle cx="97" cy="30" r="10" fill="none" stroke="#f4d35e" stroke-width="5"/>
</svg>
