<svg xmlns="http://www.w3.org/2000/svg" viewBox="0 0 128 128" role="img" aria-label="女织工角色图标">
  <defs>
    <linearGradient id="bg99" x1="18" y1="14" x2="110" y2="116" gradientUnits="userSpaceOnUse">
      <stop stop-color="#7d9dbb"/>
      <stop offset="1" stop-color="#354f6d"/>
    </linearGradient>
  </defs>
  <path d="M64 8 114 36v56l-50 28-50-28V36Z" fill="url(#bg99)" stroke="#1d2228" stroke-width="6" stroke-linejoin="round"/>
  <circle cx="35" cy="42" r="4" fill="#f2e7c9"/><circle cx="46" cy="38" r="3" fill="#f2e7c9"/>
  <path d="M41 101c4-21 14-34 23-34s19 13 23 34Z" fill="#7a5d3d" stroke="#1d2228" stroke-width="5" stroke-linejoin="round"/><path d="M54 80h20l9 23H45Z" fill="#7a5d3d" opacity=".85"/>
  <circle cx="64" cy="50" r="20" fill="#f1c99a" stroke="#1d2228" stroke-width="5"/>
  <path d="M38 63c-8 8-10 18-6 28M90 63c8 8 10 18 6 28" fill="none" stroke="#20252a" stroke-width="5" stroke-linecap="round"/>
  <path d="M41 48c8-25 39-27 47 0 0 20-9 30-24 30S41 68 41 48Z" fill="#20252a" stroke="#1d2228" stroke-width="4"/><path d="M44 47c12-16 31-18 42-1-14-2-29-6-42 1Z" fill="#20252a"/>
  <path d="M51 54h.1M77 54h.1" stroke="#1d2228" stroke-width="6" stroke-linecap="round"/>
  <path d="M57 65h14" fill="none" stroke="#1d2228" stroke-width="4" stroke-linecap="round"/>
  <circle cx="96" cy="78" r="18" fill="#f0a6ca" stroke="#222" stroke-width="5"/><path d="M78 78h36M96 60v36M83 65l26 26M109 65 83 91" stroke="#fff" stroke-width="3"/>
</svg>
