<svg xmlns="http://www.w3.org/2000/svg" viewBox="0 0 128 128" role="img" aria-label="女典狱官角色图标">
  <defs>
    <linearGradient id="bg84" x1="18" y1="14" x2="110" y2="116" gradientUnits="userSpaceOnUse">
      <stop stop-color="#9b82c7"/>
      <stop offset="1" stop-color="#4c477d"/>
    </linearGradient>
  </defs>
  <path d="M64 8 114 36v56l-50 28-50-28V36Z" fill="url(#bg84)" stroke="#1d2228" stroke-width="6" stroke-linejoin="round"/>
  <path d="M28 43h22" stroke="#f4d35e" stroke-width="5" stroke-linecap="round"/> 
  <path d="M41 101c4-21 14-34 23-34s19 13 23 34Z" fill="#8b322d" stroke="#1d2228" stroke-width="5" stroke-linejoin="round"/><path d="M54 80h20l9 23H45Z" fill="#8b322d" opacity=".85"/>
  <circle cx="64" cy="50" r="20" fill="#f0d0aa" stroke="#1d2228" stroke-width="5"/>
  <path d="M38 63c-8 8-10 18-6 28M90 63c8 8 10 18 6 28" fill="none" stroke="#7a5438" stroke-width="5" stroke-linecap="round"/>
  <path d="M41 48c8-25 39-27 47 0 0 20-9 30-24 30S41 68 41 48Z" fill="#7a5438" stroke="#1d2228" stroke-width="4"/><path d="M44 47c12-16 31-18 42-1-14-2-29-6-42 1Z" fill="#7a5438"/>
  <path d="M51 55h.1M77 55h.1" stroke="#1d2228" stroke-width="6" stroke-linecap="round"/>
  <path d="M57 65h14" fill="none" stroke="#1d2228" stroke-width="4" stroke-linecap="round"/>
  <circle cx="87" cy="68" r="10" fill="none" stroke="#f4d35e" stroke-width="6"/><path d="M96 76 114 94m-6-1 5-5m-14-2 5-5" stroke="#f4d35e" stroke-width="6" stroke-linecap="round"/>
</svg>
