<svg xmlns="http://www.w3.org/2000/svg" viewBox="0 0 128 128" role="img" aria-label="女店主角色图标">
  <defs>
    <linearGradient id="bg94" x1="18" y1="14" x2="110" y2="116" gradientUnits="userSpaceOnUse">
      <stop stop-color="#74a9c8"/>
      <stop offset="1" stop-color="#365d73"/>
    </linearGradient>
  </defs>
  <path d="M64 8 114 36v56l-50 28-50-28V36Z" fill="url(#bg94)" stroke="#1d2228" stroke-width="6" stroke-linejoin="round"/>
  
  <path d="M41 101c4-21 14-34 23-34s19 13 23 34Z" fill="#526b82" stroke="#1d2228" stroke-width="5" stroke-linejoin="round"/><path d="M54 80h20l9 23H45Z" fill="#526b82" opacity=".85"/>
  <circle cx="64" cy="50" r="20" fill="#f0d0aa" stroke="#1d2228" stroke-width="5"/>
  <path d="M38 63c-8 8-10 18-6 28M90 63c8 8 10 18 6 28" fill="none" stroke="#7a5438" stroke-width="5" stroke-linecap="round"/>
  <path d="M41 48c8-25 39-27 47 0 0 20-9 30-24 30S41 68 41 48Z" fill="#7a5438" stroke="#1d2228" stroke-width="4"/><path d="M44 47c12-16 31-18 42-1-14-2-29-6-42 1Z" fill="#7a5438"/>
  <path d="M51 55h.1M77 55h.1" stroke="#1d2228" stroke-width="6" stroke-linecap="round"/>
  <path d="M56 65c5 2 11 2 16 0" fill="none" stroke="#1d2228" stroke-width="4" stroke-linecap="round"/>
  <path d="M80 72h28v25c0 8-6 12-14 12s-14-4-14-12Z" fill="#d6dbe0" stroke="#222" stroke-width="5"/><path d="M108 78h6c8 0 8 15 0 15h-6" fill="none" stroke="#222" stroke-width="5"/>
</svg>
