<svg xmlns="http://www.w3.org/2000/svg" viewBox="0 0 128 128" role="img" aria-label="男绘图师角色图标">
  <defs>
    <linearGradient id="bg27" x1="18" y1="14" x2="110" y2="116" gradientUnits="userSpaceOnUse">
      <stop stop-color="#87c7b3"/>
      <stop offset="1" stop-color="#3d796f"/>
    </linearGradient>
  </defs>
  <path d="M64 8 114 36v56l-50 28-50-28V36Z" fill="url(#bg27)" stroke="#1d2228" stroke-width="6" stroke-linejoin="round"/>
  
  <path d="M38 101c4-20 15-34 26-34s22 14 26 34Z" fill="#384b83" stroke="#1d2228" stroke-width="5" stroke-linejoin="round"/><path d="M47 79h34l8 24H39Z" fill="#384b83" opacity=".85"/>
  <circle cx="64" cy="50" r="20" fill="#c89166" stroke="#1d2228" stroke-width="5"/>
  
  <path d="M42 46c9-22 35-24 46 0-14-7-31-7-46 0Z" fill="#7a5438" stroke="#1d2228" stroke-width="4" stroke-linejoin="round"/>
  <path d="M51 55h.1M77 55h.1" stroke="#1d2228" stroke-width="6" stroke-linecap="round"/>
  <path d="M56 64c5 4 11 4 16 0" fill="none" stroke="#1d2228" stroke-width="4" stroke-linecap="round"/>
  <circle cx="96" cy="78" r="18" fill="#f2e7c9" stroke="#222" stroke-width="5"/><path d="M103 66 96 96 89 83Z" fill="#c7423e" stroke="#222" stroke-width="3"/>
</svg>
