<svg xmlns="http://www.w3.org/2000/svg" viewBox="0 0 128 128" role="img" aria-label="男学者角色图标">
  <defs>
    <linearGradient id="bg7" x1="18" y1="14" x2="110" y2="116" gradientUnits="userSpaceOnUse">
      <stop stop-color="#d7b85d"/>
      <stop offset="1" stop-color="#8b632c"/>
    </linearGradient>
  </defs>
  <path d="M64 8 114 36v56l-50 28-50-28V36Z" fill="url(#bg7)" stroke="#1d2228" stroke-width="6" stroke-linejoin="round"/>
  <circle cx="36" cy="39" r="6" fill="#f4d35e" stroke="#1d2228" stroke-width="3"/>
  <path d="M38 101c4-20 15-34 26-34s22 14 26 34Z" fill="#2f6c75" stroke="#1d2228" stroke-width="5" stroke-linejoin="round"/><path d="M47 79h34l8 24H39Z" fill="#2f6c75" opacity=".85"/>
  <circle cx="64" cy="50" r="20" fill="#f1c99a" stroke="#1d2228" stroke-width="5"/>
  
  <path d="M42 46c9-22 35-24 46 0-14-7-31-7-46 0Z" fill="#20252a" stroke="#1d2228" stroke-width="4" stroke-linejoin="round"/>
  <path d="M51 54h.1M77 54h.1" stroke="#1d2228" stroke-width="6" stroke-linecap="round"/>
  <path d="M56 65c5 2 11 2 16 0" fill="none" stroke="#1d2228" stroke-width="4" stroke-linecap="round"/>
  <path d="M29 80c13-7 24-7 35 0v30c-11-7-22-7-35 0Z" fill="#f2e7c9" stroke="#1f1d31" stroke-width="5"/><path d="M64 80c11-7 22-7 35 0v30c-13-7-24-7-35 0Z" fill="#f2e7c9" stroke="#1f1d31" stroke-width="5"/>
</svg>
