<svg xmlns="http://www.w3.org/2000/svg" viewBox="0 0 128 128" role="img" aria-label="女旅人角色图标">
  <defs>
    <linearGradient id="bg59" x1="18" y1="14" x2="110" y2="116" gradientUnits="userSpaceOnUse">
      <stop stop-color="#9a8f7a"/>
      <stop offset="1" stop-color="#56524b"/>
    </linearGradient>
  </defs>
  <path d="M64 8 114 36v56l-50 28-50-28V36Z" fill="url(#bg59)" stroke="#1d2228" stroke-width="6" stroke-linejoin="round"/>
  
  <path d="M41 101c4-21 14-34 23-34s19 13 23 34Z" fill="#f1ead7" stroke="#1d2228" stroke-width="5" stroke-linejoin="round"/><path d="M54 80h20l9 23H45Z" fill="#f1ead7" opacity=".85"/>
  <circle cx="64" cy="50" r="20" fill="#f0d0aa" stroke="#1d2228" stroke-width="5"/>
  <path d="M38 63c-8 8-10 18-6 28M90 63c8 8 10 18 6 28" fill="none" stroke="#20252a" stroke-width="5" stroke-linecap="round"/>
  <path d="M41 48c8-25 39-27 47 0 0 20-9 30-24 30S41 68 41 48Z" fill="#20252a" stroke="#1d2228" stroke-width="4"/><path d="M44 47c12-16 31-18 42-1-14-2-29-6-42 1Z" fill="#20252a"/>
  <path d="M51 55h.1M77 55h.1" stroke="#1d2228" stroke-width="6" stroke-linecap="round"/>
  <path d="M57 65h14" fill="none" stroke="#1d2228" stroke-width="4" stroke-linecap="round"/>
  <path d="M29 75h21l7 29H34Z" fill="#8b5e34" stroke="#172933" stroke-width="5"/><path d="M32 75c1-9 6-14 12-14" fill="none" stroke="#172933" stroke-width="5" stroke-linecap="round"/>
</svg>
