<svg xmlns="http://www.w3.org/2000/svg" viewBox="0 0 128 128" role="img" aria-label="女医者角色图标">
  <defs>
    <linearGradient id="bg55" x1="18" y1="14" x2="110" y2="116" gradientUnits="userSpaceOnUse">
      <stop stop-color="#b98a4c"/>
      <stop offset="1" stop-color="#74482d"/>
    </linearGradient>
  </defs>
  <path d="M64 8 114 36v56l-50 28-50-28V36Z" fill="url(#bg55)" stroke="#1d2228" stroke-width="6" stroke-linejoin="round"/>
  <path d="M28 43h22" stroke="#f4d35e" stroke-width="5" stroke-linecap="round"/> 
  <path d="M41 101c4-21 14-34 23-34s19 13 23 34Z" fill="#7a5d3d" stroke="#1d2228" stroke-width="5" stroke-linejoin="round"/><path d="M54 80h20l9 23H45Z" fill="#7a5d3d" opacity=".85"/>
  <circle cx="64" cy="50" r="20" fill="#f1c99a" stroke="#1d2228" stroke-width="5"/>
  <path d="M38 63c-8 8-10 18-6 28M90 63c8 8 10 18 6 28" fill="none" stroke="#2f2b24" stroke-width="5" stroke-linecap="round"/>
  <path d="M41 48c8-25 39-27 47 0 0 20-9 30-24 30S41 68 41 48Z" fill="#2f2b24" stroke="#1d2228" stroke-width="4"/><path d="M44 47c12-16 31-18 42-1-14-2-29-6-42 1Z" fill="#2f2b24"/>
  <path d="M51 55h.1M77 55h.1" stroke="#1d2228" stroke-width="6" stroke-linecap="round"/>
  <path d="M56 65c5 2 11 2 16 0" fill="none" stroke="#1d2228" stroke-width="4" stroke-linecap="round"/>
  <path d="M94 48c10-7 18-3 20 5-12 2-19 0-20-5Zm-8 9c-2-13 4-19 12-21 1 13-3 19-12 21Z" fill="#87d37c" stroke="#18302e" stroke-width="4"/><path d="M64 82v20M54 92h20" stroke="#c7423e" stroke-width="7" stroke-linecap="round"/>
</svg>
