<svg xmlns="http://www.w3.org/2000/svg" viewBox="0 0 128 128" role="img" aria-label="男游牧者角色图标">
  <defs>
    <linearGradient id="bg31" x1="18" y1="14" x2="110" y2="116" gradientUnits="userSpaceOnUse">
      <stop stop-color="#b98a4c"/>
      <stop offset="1" stop-color="#74482d"/>
    </linearGradient>
  </defs>
  <path d="M64 8 114 36v56l-50 28-50-28V36Z" fill="url(#bg31)" stroke="#1d2228" stroke-width="6" stroke-linejoin="round"/>
  <path d="M28 43h22" stroke="#f4d35e" stroke-width="5" stroke-linecap="round"/> 
  <path d="M38 101c4-20 15-34 26-34s22 14 26 34Z" fill="#587a4b" stroke="#1d2228" stroke-width="5" stroke-linejoin="round"/><path d="M47 79h34l8 24H39Z" fill="#587a4b" opacity=".85"/>
  <circle cx="64" cy="50" r="20" fill="#e6bd8c" stroke="#1d2228" stroke-width="5"/>
  
  <path d="M42 46c9-22 35-24 46 0-14-7-31-7-46 0Z" fill="#2f2b24" stroke="#1d2228" stroke-width="4" stroke-linejoin="round"/>
  <path d="M51 55h.1M77 55h.1" stroke="#1d2228" stroke-width="6" stroke-linecap="round"/>
  <path d="M56 65c5 2 11 2 16 0" fill="none" stroke="#1d2228" stroke-width="4" stroke-linecap="round"/>
  <path d="M74 99 96 55l22 44Z" fill="#d6a56d" stroke="#222" stroke-width="5"/><path d="M96 55v44" stroke="#222" stroke-width="4"/>
</svg>
