<svg xmlns="http://www.w3.org/2000/svg" viewBox="0 0 128 128" role="img" aria-label="女使节角色图标">
  <defs>
    <linearGradient id="bg89" x1="18" y1="14" x2="110" y2="116" gradientUnits="userSpaceOnUse">
      <stop stop-color="#9b82c7"/>
      <stop offset="1" stop-color="#4c477d"/>
    </linearGradient>
  </defs>
  <path d="M64 8 114 36v56l-50 28-50-28V36Z" fill="url(#bg89)" stroke="#1d2228" stroke-width="6" stroke-linejoin="round"/>
  <path d="M28 43h22" stroke="#f4d35e" stroke-width="5" stroke-linecap="round"/> 
  <path d="M41 101c4-21 14-34 23-34s19 13 23 34Z" fill="#2f6c75" stroke="#1d2228" stroke-width="5" stroke-linejoin="round"/><path d="M54 80h20l9 23H45Z" fill="#2f6c75" opacity=".85"/>
  <circle cx="64" cy="50" r="20" fill="#8f5f43" stroke="#1d2228" stroke-width="5"/>
  <path d="M38 63c-8 8-10 18-6 28M90 63c8 8 10 18 6 28" fill="none" stroke="#2d2722" stroke-width="5" stroke-linecap="round"/>
  <path d="M41 48c8-25 39-27 47 0 0 20-9 30-24 30S41 68 41 48Z" fill="#2d2722" stroke="#1d2228" stroke-width="4"/><path d="M44 47c12-16 31-18 42-1-14-2-29-6-42 1Z" fill="#2d2722"/>
  <path d="M51 55h.1M77 55h.1" stroke="#1d2228" stroke-width="6" stroke-linecap="round"/>
  <path d="M57 65h14" fill="none" stroke="#1d2228" stroke-width="4" stroke-linecap="round"/>
  <path d="M82 86c9-18 22-27 35-31" fill="none" stroke="#2f6b53" stroke-width="5"/><path d="M93 76c-11-4-14-11-9-18 8 3 11 9 9 18Zm11-9c10-7 18-6 22 2-8 6-16 5-22-2Z" fill="#87d37c" stroke="#18302e" stroke-width="3"/>
</svg>
