<svg xmlns="http://www.w3.org/2000/svg" viewBox="0 0 128 128" role="img" aria-label="女商贾角色图标">
  <defs>
    <linearGradient id="bg56" x1="18" y1="14" x2="110" y2="116" gradientUnits="userSpaceOnUse">
      <stop stop-color="#6fb16d"/>
      <stop offset="1" stop-color="#2f6b53"/>
    </linearGradient>
  </defs>
  <path d="M64 8 114 36v56l-50 28-50-28V36Z" fill="url(#bg56)" stroke="#1d2228" stroke-width="6" stroke-linejoin="round"/>
  <circle cx="36" cy="39" r="6" fill="#f4d35e" stroke="#1d2228" stroke-width="3"/>
  <path d="M41 101c4-21 14-34 23-34s19 13 23 34Z" fill="#587a4b" stroke="#1d2228" stroke-width="5" stroke-linejoin="round"/><path d="M54 80h20l9 23H45Z" fill="#587a4b" opacity=".85"/>
  <circle cx="64" cy="50" r="20" fill="#c89166" stroke="#1d2228" stroke-width="5"/>
  <path d="M38 63c-8 8-10 18-6 28M90 63c8 8 10 18 6 28" fill="none" stroke="#7a5438" stroke-width="5" stroke-linecap="round"/>
  <path d="M41 48c8-25 39-27 47 0 0 20-9 30-24 30S41 68 41 48Z" fill="#7a5438" stroke="#1d2228" stroke-width="4"/><path d="M44 47c12-16 31-18 42-1-14-2-29-6-42 1Z" fill="#7a5438"/>
  <path d="M51 54h.1M77 54h.1" stroke="#1d2228" stroke-width="6" stroke-linecap="round"/>
  <path d="M56 64c5 4 11 4 16 0" fill="none" stroke="#1d2228" stroke-width="4" stroke-linecap="round"/>
  <circle cx="96" cy="75" r="13" fill="#f4d35e" stroke="#2a2116" stroke-width="5"/><path d="M96 68v14m-6-7h12" stroke="#8b632c" stroke-width="4" stroke-linecap="round"/>
</svg>
