<svg xmlns="http://www.w3.org/2000/svg" viewBox="0 0 128 128" role="img" aria-label="女驯兽师角色图标">
  <defs>
    <linearGradient id="bg74" x1="18" y1="14" x2="110" y2="116" gradientUnits="userSpaceOnUse">
      <stop stop-color="#c66b57"/>
      <stop offset="1" stop-color="#6f2d2c"/>
    </linearGradient>
  </defs>
  <path d="M64 8 114 36v56l-50 28-50-28V36Z" fill="url(#bg74)" stroke="#1d2228" stroke-width="6" stroke-linejoin="round"/>
  <circle cx="35" cy="42" r="4" fill="#f2e7c9"/><circle cx="46" cy="38" r="3" fill="#f2e7c9"/>
  <path d="M41 101c4-21 14-34 23-34s19 13 23 34Z" fill="#5e2f2d" stroke="#1d2228" stroke-width="5" stroke-linejoin="round"/><path d="M54 80h20l9 23H45Z" fill="#5e2f2d" opacity=".85"/>
  <circle cx="64" cy="50" r="20" fill="#f1c99a" stroke="#1d2228" stroke-width="5"/>
  <path d="M38 63c-8 8-10 18-6 28M90 63c8 8 10 18 6 28" fill="none" stroke="#2d2722" stroke-width="5" stroke-linecap="round"/>
  <path d="M41 48c8-25 39-27 47 0 0 20-9 30-24 30S41 68 41 48Z" fill="#2d2722" stroke="#1d2228" stroke-width="4"/><path d="M44 47c12-16 31-18 42-1-14-2-29-6-42 1Z" fill="#2d2722"/>
  <path d="M51 54h.1M77 54h.1" stroke="#1d2228" stroke-width="6" stroke-linecap="round"/>
  <path d="M56 64c5 4 11 4 16 0" fill="none" stroke="#1d2228" stroke-width="4" stroke-linecap="round"/>
  <circle cx="95" cy="84" r="10" fill="#5d4734" stroke="#222" stroke-width="4"/><circle cx="82" cy="70" r="5" fill="#5d4734"/><circle cx="93" cy="65" r="5" fill="#5d4734"/><circle cx="105" cy="70" r="5" fill="#5d4734"/><circle cx="111" cy="82" r="5" fill="#5d4734"/>
</svg>
