<svg xmlns="http://www.w3.org/2000/svg" viewBox="0 0 128 128" role="img" aria-label="男祭司角色图标">
  <defs>
    <linearGradient id="bg21" x1="18" y1="14" x2="110" y2="116" gradientUnits="userSpaceOnUse">
      <stop stop-color="#9a8f7a"/>
      <stop offset="1" stop-color="#56524b"/>
    </linearGradient>
  </defs>
  <path d="M64 8 114 36v56l-50 28-50-28V36Z" fill="url(#bg21)" stroke="#1d2228" stroke-width="6" stroke-linejoin="round"/>
  
  <path d="M38 101c4-20 15-34 26-34s22 14 26 34Z" fill="#f1ead7" stroke="#1d2228" stroke-width="5" stroke-linejoin="round"/><path d="M47 79h34l8 24H39Z" fill="#f1ead7" opacity=".85"/>
  <circle cx="64" cy="50" r="20" fill="#f0d0aa" stroke="#1d2228" stroke-width="5"/>
  
  <path d="M42 46c9-22 35-24 46 0-14-7-31-7-46 0Z" fill="#2f2b24" stroke="#1d2228" stroke-width="4" stroke-linejoin="round"/>
  <path d="M51 55h.1M77 55h.1" stroke="#1d2228" stroke-width="6" stroke-linecap="round"/>
  <path d="M57 65h14" fill="none" stroke="#1d2228" stroke-width="4" stroke-linecap="round"/>
  <circle cx="96" cy="72" r="12" fill="#f4d35e" stroke="#222" stroke-width="5"/><path d="M96 48v10m0 28v10m-24-24h10m28 0h10m-41-17 7 7m20 20 7 7m0-34-7 7m-20 20-7 7" stroke="#f4d35e" stroke-width="4" stroke-linecap="round"/>
</svg>
