<svg xmlns="http://www.w3.org/2000/svg" viewBox="0 0 128 128" role="img" aria-label="女渔人角色图标">
  <defs>
    <linearGradient id="bg92" x1="18" y1="14" x2="110" y2="116" gradientUnits="userSpaceOnUse">
      <stop stop-color="#87c7b3"/>
      <stop offset="1" stop-color="#3d796f"/>
    </linearGradient>
  </defs>
  <path d="M64 8 114 36v56l-50 28-50-28V36Z" fill="url(#bg92)" stroke="#1d2228" stroke-width="6" stroke-linejoin="round"/>
  
  <path d="M41 101c4-21 14-34 23-34s19 13 23 34Z" fill="#8b322d" stroke="#1d2228" stroke-width="5" stroke-linejoin="round"/><path d="M54 80h20l9 23H45Z" fill="#8b322d" opacity=".85"/>
  <circle cx="64" cy="50" r="20" fill="#8f5f43" stroke="#1d2228" stroke-width="5"/>
  <path d="M38 63c-8 8-10 18-6 28M90 63c8 8 10 18 6 28" fill="none" stroke="#6b3f2d" stroke-width="5" stroke-linecap="round"/>
  <path d="M41 48c8-25 39-27 47 0 0 20-9 30-24 30S41 68 41 48Z" fill="#6b3f2d" stroke="#1d2228" stroke-width="4"/><path d="M44 47c12-16 31-18 42-1-14-2-29-6-42 1Z" fill="#6b3f2d"/>
  <path d="M51 55h.1M77 55h.1" stroke="#1d2228" stroke-width="6" stroke-linecap="round"/>
  <path d="M56 64c5 4 11 4 16 0" fill="none" stroke="#1d2228" stroke-width="4" stroke-linecap="round"/>
  <path d="M77 79c12-17 28-17 40 0-12 17-28 17-40 0Z" fill="#74a9c8" stroke="#222" stroke-width="5"/><path d="M77 79 64 67v24Z" fill="#74a9c8" stroke="#222" stroke-width="5"/><circle cx="108" cy="76" r="2" fill="#222"/>
</svg>
