<svg xmlns="http://www.w3.org/2000/svg" viewBox="0 0 128 128" role="img" aria-label="卫士角色图标">
  <defs>
    <linearGradient id="bg" x1="18" y1="16" x2="110" y2="116" gradientUnits="userSpaceOnUse">
      <stop stop-color="#7d9dbb"/>
      <stop offset="1" stop-color="#354f6d"/>
    </linearGradient>
  </defs>
  <path d="M64 8 114 36v56l-50 28-50-28V36Z" fill="url(#bg)" stroke="#162333" stroke-width="6" stroke-linejoin="round"/>
  <path d="M39 98c4-19 14-31 25-31s21 12 25 31" fill="#aeb8c1" stroke="#162333" stroke-width="5" stroke-linecap="round"/>
  <circle cx="64" cy="50" r="20" fill="#deb78d" stroke="#162333" stroke-width="5"/>
  <path d="M41 47c4-21 41-24 47 0-14-6-35-6-47 0Z" fill="#7f8b96" stroke="#162333" stroke-width="5" stroke-linejoin="round"/>
  <path d="M47 78h34l8 25H39Z" fill="#526b82" stroke="#162333" stroke-width="5" stroke-linejoin="round"/>
  <path d="M31 69v26c0 11 12 18 21 21 9-3 21-10 21-21V69c-14-3-28-3-42 0Z" fill="#d6dbe0" stroke="#162333" stroke-width="5" stroke-linejoin="round"/>
  <path d="M52 75v34M35 91h34" stroke="#607994" stroke-width="5" stroke-linecap="round"/>
  <path d="M88 25v61" stroke="#f3dfb1" stroke-width="6" stroke-linecap="round"/>
  <path d="M79 39h18M81 25h14" stroke="#f3dfb1" stroke-width="6" stroke-linecap="round"/>
</svg>
