<svg xmlns="http://www.w3.org/2000/svg" viewBox="0 0 128 128" role="img" aria-label="斥候角色图标">
  <defs>
    <linearGradient id="bg" x1="20" y1="14" x2="108" y2="116" gradientUnits="userSpaceOnUse">
      <stop stop-color="#6fb16d"/>
      <stop offset="1" stop-color="#2f6b53"/>
    </linearGradient>
  </defs>
  <path d="M64 8 114 36v56l-50 28-50-28V36Z" fill="url(#bg)" stroke="#1d2a26" stroke-width="6" stroke-linejoin="round"/>
  <path d="M35 96c3-20 14-31 29-31s26 11 29 31" fill="#d7b98b" stroke="#1d2a26" stroke-width="5" stroke-linecap="round"/>
  <circle cx="64" cy="49" r="21" fill="#e9c49a" stroke="#1d2a26" stroke-width="5"/>
  <path d="M42 46c10-23 32-26 47-6-12 0-20-5-30-11 1 10-7 14-17 17Z" fill="#32402f" stroke="#1d2a26" stroke-width="4" stroke-linejoin="round"/>
  <path d="M50 76h28l10 25H40Z" fill="#587a4b" stroke="#1d2a26" stroke-width="5" stroke-linejoin="round"/>
  <path d="M45 61 27 82m56-21 18 21" stroke="#f1d188" stroke-width="6" stroke-linecap="round"/>
  <path d="M50 54h.1M78 54h.1" stroke="#1d2a26" stroke-width="6" stroke-linecap="round"/>
  <path d="M56 63c5 4 11 4 16 0" fill="none" stroke="#1d2a26" stroke-width="4" stroke-linecap="round"/>
  <path d="M99 25 87 36l13 5" fill="none" stroke="#f4d35e" stroke-width="5" stroke-linecap="round" stroke-linejoin="round"/>
</svg>
