<svg xmlns="http://www.w3.org/2000/svg" viewBox="0 0 128 128" role="img" aria-label="旅人角色图标">
  <defs>
    <linearGradient id="bg" x1="18" y1="16" x2="110" y2="116" gradientUnits="userSpaceOnUse">
      <stop stop-color="#74a9c8"/>
      <stop offset="1" stop-color="#365d73"/>
    </linearGradient>
  </defs>
  <path d="M64 8 114 36v56l-50 28-50-28V36Z" fill="url(#bg)" stroke="#172933" stroke-width="6" stroke-linejoin="round"/>
  <path d="M38 99c4-20 15-32 26-32s22 12 26 32" fill="#b8996e" stroke="#172933" stroke-width="5" stroke-linecap="round"/>
  <circle cx="64" cy="50" r="20" fill="#e4ba8d" stroke="#172933" stroke-width="5"/>
  <path d="M42 45c13-20 35-19 45 2-14-5-31-6-45-2Z" fill="#5d4734" stroke="#172933" stroke-width="4" stroke-linejoin="round"/>
  <path d="M46 78h36l9 25H37Z" fill="#445f72" stroke="#172933" stroke-width="5" stroke-linejoin="round"/>
  <path d="M28 100c12-13 24-20 36-20s24 7 36 20" fill="none" stroke="#e9d8a6" stroke-width="6" stroke-linecap="round"/>
  <path d="M29 75h20l7 28H34Z" fill="#8b5e34" stroke="#172933" stroke-width="5" stroke-linejoin="round"/>
  <path d="M32 75c1-9 6-14 12-14" fill="none" stroke="#172933" stroke-width="5" stroke-linecap="round"/>
  <path d="M51 54h.1M77 54h.1" stroke="#172933" stroke-width="6" stroke-linecap="round"/>
  <path d="M57 64c4 3 10 3 14 0" fill="none" stroke="#172933" stroke-width="4" stroke-linecap="round"/>
</svg>
